<svg width="750" height="900" viewBox="0 0 750 900" fill="none" xmlns="http://www.w3.org/2000/svg">
<g clip-path="url(#clip0_1_2)">
<rect width="750" height="900" fill="white"/>
<path d="M700 1098.1C845.251 1098.1 963 981.448 963 837.55C963 693.652 845.251 577 700 577C554.749 577 437 693.652 437 837.55C437 981.448 554.749 1098.1 700 1098.1Z" fill="#CFFCBF"/>
<path d="M353.307 332.569C274.939 349.394 207.952 268.317 228.875 181.962L375.176 -421.839C397.397 -513.549 500.881 -542.072 558.478 -472.361L960.143 13.7935C1017.74 83.504 984.506 197.052 901.279 214.921L353.307 332.569Z" fill="#FFE5BD"/>
<path d="M40.0085 711.328C65.1561 696.968 97.1222 704.3 113.486 728.181L319.084 1028.24C347.697 1069.99 310.119 1125.12 260.759 1113.8L-260.808 994.168C-310.166 982.843 -319.928 916.86 -275.957 891.75L40.0085 711.328Z" fill="#CEE2FF"/>
</g>
<defs>
<clipPath id="clip0_1_2">
<rect width="750" height="900" fill="white"/>
</clipPath>
</defs>
</svg>
