<svg width="1500" height="1000" viewBox="0 0 1500 1000" fill="none" xmlns="http://www.w3.org/2000/svg">
<g clip-path="url(#clip0_1_2)">
<path d="M1552.5 1137C1773.14 1137 1952 996.641 1952 823.5C1952 650.359 1773.14 510 1552.5 510C1331.86 510 1153 650.359 1153 823.5C1153 996.641 1331.86 1137 1552.5 1137Z" fill="#CFFCBF"/>
<path d="M788.104 352.047C692.247 370.398 610.311 281.97 635.904 187.787L814.853 -470.755C842.033 -570.779 968.61 -601.888 1039.06 -525.857L1530.36 4.37207C1600.81 80.4025 1560.16 204.245 1458.36 223.734L788.104 352.047Z" fill="#FFE5BD"/>
<path d="M776.854 721.651C813.934 700.463 861.068 711.282 885.196 746.519L1188.35 1189.26C1230.54 1250.87 1175.13 1332.22 1102.35 1315.51L333.302 1138.99C260.523 1122.28 246.13 1024.92 310.964 987.869L776.854 721.651Z" fill="#CEE2FF"/>
</g>
<defs>
<clipPath id="clip0_1_2">
<rect width="1500" height="1000" fill="white"/>
</clipPath>
</defs>
</svg>
